<svg width="1001" height="511" viewBox="0 0 1001 511" fill="none" xmlns="http://www.w3.org/2000/svg">
    <path d="M185.628 280.716C211.552 254.522 252.422 156.809 253.65 133.657C255.14 103.403 246.263 78.3581 206.677 60.1405C184.148 49.7023 173.109 36.7965 161.134 22.7961C159.57 20.9675 157.99 19.1202 156.366 17.2573C141.824 1.00166 133.384 47.5149 129.991 87.3799C126.194 131.067 130.123 188.308 139.597 226.004C146.478 253.381 165.2 295.311 170.195 294.383C171.281 294.181 178.153 288.056 185.628 280.716Z"
          fill="white"/>
    <path d="M574.299 469.181C573.236 472.41 571.376 476.331 568.719 480.945C566.062 485.558 558.888 491.786 547.197 499.629C536.038 507.01 522.488 510.701 506.546 510.701C491.135 510.701 477.585 507.01 465.894 499.629C454.735 491.786 447.295 484.174 443.575 476.793L350.316 238.05H333.185L239.925 476.793C236.205 484.174 228.765 491.786 217.606 499.629C205.916 507.01 192.365 510.701 176.954 510.701C161.013 510.701 147.462 507.01 136.303 499.629C124.612 491.786 117.438 485.558 114.781 480.945C112.124 476.331 110.264 472.41 109.202 469.181C72.8011 359.607 0 113.752 0 6.92006C14.3477 2.30669 26.8354 0 37.4633 0L104.599 0.955489C89.7244 125.308 94.5268 323.268 162.382 353.54C202.267 365.386 236.566 266.484 280.797 138.945C295.621 96.2004 311.56 50.2389 329.199 4.15203H354.301C371.94 50.2389 387.88 96.2004 402.704 138.945C446.934 266.484 481.234 365.386 521.118 353.54C570.509 331.505 587.565 220.626 587.001 113.958H670.588C666.1 137.564 660.653 162.623 654.596 188.261C630.187 291.574 595.858 404.282 574.299 469.181Z"
          fill="white"/>
    <path fill-rule="evenodd" clip-rule="evenodd"
          d="M741.999 508.194C754.212 508.725 764.833 508.99 773.86 508.99C847.142 508.99 903.166 496.511 941.931 471.553C981.227 446.063 1000.87 407.033 1000.87 354.461C1000.87 324.724 991.847 300.031 973.792 280.383C956.269 260.735 934.231 247.193 907.68 239.759C931.045 231.794 949.631 219.315 963.437 202.322C977.244 184.798 984.148 164.088 984.148 140.191C984.148 92.3989 965.827 57.0855 929.186 34.2513C892.545 11.4171 840.239 0 772.267 0C743.592 0 715.713 1.59308 688.63 4.77924C686.902 4.94869 685.192 5.12572 683.5 5.31031V6.92006C682.221 6.50859 680.956 6.11548 679.706 5.74071C656.826 8.46977 636.813 12.7127 620.924 18.3205C610.304 22.0376 601.807 27.0824 595.435 33.4547C589.594 39.296 586.673 47.7925 586.673 58.9441V93.2957H717.514C787.155 93.2958 839.913 84.8544 839.913 141.833C839.913 198.813 791.375 188.261 717.514 188.261H683.748L653.391 293.791L615.815 424.421L602.257 471.553C609.287 478.735 618.695 484.576 630.483 489.077C641.103 493.325 652.786 496.511 665.531 498.635C678.275 501.29 691.02 503.414 703.765 505.007C717.041 506.601 729.785 507.663 741.999 508.194ZM866.856 333.684C866.856 310.037 794.841 308.963 794.841 333.684C794.841 363.78 866.856 355.181 866.856 333.684ZM824.937 290.69C824.937 267.044 752.923 265.969 752.923 290.69C752.923 320.786 824.937 312.187 824.937 290.69ZM866.856 384.464C866.856 408.11 794.841 409.185 794.841 384.464C794.841 354.368 866.856 362.967 866.856 384.464ZM824.937 427.457C824.937 451.104 752.923 452.179 752.923 427.457C752.923 397.362 824.937 405.96 824.937 427.457ZM680.164 296.755C705.96 276.333 771.526 316.102 771.526 356.946C771.526 397.79 705.96 436.747 680.164 416.325C671.046 407.857 676.53 395.348 682.268 382.26C685.999 373.749 689.838 364.993 689.838 356.946C689.838 348.93 686.029 340.087 682.312 331.455C676.558 318.096 671.023 305.243 680.164 296.755Z"
          fill="white"/>
</svg>
