<svg width="2658" height="425" viewBox="0 0 2658 425" fill="none" xmlns="http://www.w3.org/2000/svg">
<path d="M681.935 424.389C658.974 424.389 637.57 421.276 617.722 415.049C598.264 408.433 581.14 398.704 566.352 385.862C551.953 373.019 540.472 356.868 531.91 337.41C523.738 317.952 519.651 295.185 519.651 269.111C519.651 243.426 523.738 221.437 531.91 203.146C540.472 184.466 551.563 169.289 565.184 157.614C578.805 145.549 594.372 136.793 611.885 131.345C629.397 125.507 647.299 122.588 665.59 122.588C686.216 122.588 704.896 125.702 721.631 131.928C738.754 138.155 753.348 146.717 765.412 157.614C777.866 168.51 787.4 181.548 794.016 196.725C801.021 211.903 804.524 228.443 804.524 246.344C804.524 259.576 800.827 269.694 793.432 276.7C786.038 283.705 775.725 288.18 762.493 290.126L618.306 311.725C622.587 324.567 631.343 334.297 644.575 340.913C657.807 347.139 672.984 350.253 690.108 350.253C706.064 350.253 721.047 348.307 735.057 344.415C749.456 340.134 761.131 335.27 770.082 329.821C776.309 333.713 781.563 339.161 785.844 346.166C790.124 353.171 792.265 360.566 792.265 368.349C792.265 385.862 784.092 398.899 767.747 407.46C755.294 414.076 741.284 418.552 725.717 420.887C710.15 423.222 695.556 424.389 681.935 424.389ZM665.59 194.974C656.25 194.974 648.077 196.531 641.072 199.644C634.457 202.757 629.008 206.844 624.727 211.903C620.446 216.573 617.138 222.021 614.803 228.248C612.858 234.085 611.69 240.118 611.301 246.344L711.123 229.999C709.955 222.216 705.675 214.432 698.28 206.649C690.886 198.866 679.989 194.974 665.59 194.974Z" fill="#2FDB4A"/>
<path d="M853.459 35.0253C857.35 33.8577 863.577 32.6902 872.139 31.5227C880.701 29.9661 889.457 29.1877 898.408 29.1877C906.969 29.1877 914.558 29.7715 921.174 30.939C928.179 32.1065 934.017 34.4415 938.687 37.944C943.357 41.4466 946.859 46.3112 949.194 52.5379C951.529 58.3754 952.697 66.1588 952.697 75.8881V133.096C962.426 129.204 971.572 126.48 980.133 124.923C989.084 123.367 998.813 122.588 1009.32 122.588C1028 122.588 1045.71 125.896 1062.44 132.512C1079.18 139.128 1093.97 148.857 1106.81 161.7C1119.65 174.153 1129.77 189.72 1137.16 208.4C1144.56 227.08 1148.25 248.679 1148.25 273.197C1148.25 298.493 1144.36 320.676 1136.58 339.745C1129.19 358.425 1118.68 373.992 1105.06 386.445C1091.44 398.899 1074.7 408.433 1054.85 415.049C1035.4 421.276 1013.8 424.389 990.057 424.389C964.372 424.389 942.579 421.276 924.677 415.049C906.775 409.212 891.597 401.818 879.144 392.867C862.02 380.802 853.459 365.236 853.459 346.166V35.0253ZM990.057 346.166C1007.96 346.166 1021.77 340.134 1031.5 328.07C1041.62 315.616 1046.68 297.326 1046.68 273.197C1046.68 248.679 1041.62 230.388 1031.5 218.324C1021.39 206.26 1007.76 200.228 990.641 200.228C982.858 200.228 976.047 201.006 970.21 202.563C964.761 204.119 958.729 206.454 952.113 209.568V336.826C956.394 339.55 961.453 341.885 967.291 343.831C973.518 345.388 981.106 346.166 990.057 346.166Z" fill="#2FDB4A"/>
<path d="M1569.57 52.5379C1569.57 37.7494 1574.44 25.296 1584.16 15.1776C1594.28 5.0592 1607.51 0 1623.86 0C1640.21 0 1653.24 5.0592 1662.97 15.1776C1673.09 25.296 1678.15 37.7494 1678.15 52.5379C1678.15 67.3263 1673.09 79.7798 1662.97 89.8981C1653.24 100.017 1640.21 105.076 1623.86 105.076C1607.51 105.076 1594.28 100.017 1584.16 89.8981C1574.44 79.7798 1569.57 67.3263 1569.57 52.5379ZM1673.48 414.466C1669.2 415.244 1662.78 416.217 1654.22 417.384C1646.04 418.941 1637.68 419.719 1629.11 419.719C1620.55 419.719 1612.77 419.136 1605.76 417.968C1599.15 416.801 1593.5 414.466 1588.83 410.963C1584.16 407.46 1580.47 402.79 1577.74 396.953C1575.41 390.726 1574.24 382.748 1574.24 373.019V135.431C1578.52 134.653 1584.75 133.68 1592.92 132.512C1601.48 130.956 1610.04 130.177 1618.61 130.177C1627.17 130.177 1634.76 130.761 1641.37 131.928C1648.38 133.096 1654.22 135.431 1658.89 138.934C1663.56 142.436 1667.06 147.301 1669.39 153.527C1672.12 159.365 1673.48 167.148 1673.48 176.878V414.466Z" fill="#2FDB4A"/>
<path d="M1896.61 200.811C1886.88 200.811 1877.54 202.368 1868.59 205.482C1860.02 208.595 1852.43 213.265 1845.82 219.492C1839.59 225.329 1834.53 232.723 1830.64 241.674C1826.75 250.625 1824.8 261.133 1824.8 273.197C1824.8 297.326 1831.61 315.422 1845.24 327.486C1859.25 339.55 1876.17 345.583 1896.02 345.583C1907.7 345.583 1917.82 344.22 1926.38 341.496C1934.94 338.772 1942.53 335.853 1949.14 332.74C1956.93 338.188 1962.76 344.22 1966.66 350.836C1970.55 357.063 1972.49 364.652 1972.49 373.603C1972.49 389.559 1964.9 402.012 1949.73 410.963C1934.55 419.525 1913.53 423.806 1886.68 423.806C1862.16 423.806 1839.98 420.303 1820.13 413.298C1800.29 405.904 1783.16 395.785 1768.76 382.943C1754.75 369.711 1743.86 353.95 1736.07 335.659C1728.29 317.368 1724.4 297.131 1724.4 274.948C1724.4 249.263 1728.48 226.886 1736.66 207.817C1745.22 188.358 1756.7 172.402 1771.1 159.949C1785.5 147.495 1802.04 138.155 1820.72 131.928C1839.79 125.702 1859.83 122.588 1880.84 122.588C1908.86 122.588 1930.46 127.648 1945.64 137.766C1960.82 147.884 1968.41 160.922 1968.41 176.878C1968.41 184.272 1966.66 191.277 1963.15 197.893C1959.65 204.119 1955.56 209.568 1950.89 214.238C1944.28 211.124 1936.3 208.206 1926.96 205.482C1917.62 202.368 1907.5 200.811 1896.61 200.811Z" fill="#2FDB4A"/>
<path d="M2302.47 414.466C2298.57 415.633 2292.35 416.801 2283.79 417.968C2275.61 419.136 2267.05 419.719 2258.1 419.719C2249.54 419.719 2241.75 419.136 2234.75 417.968C2228.13 416.801 2222.49 414.466 2217.82 410.963C2213.15 407.46 2209.45 402.79 2206.73 396.953C2204.39 390.726 2203.23 382.748 2203.23 373.019V243.426C2203.23 227.47 2199.14 216.378 2190.97 210.152C2183.18 203.536 2173.46 200.228 2161.78 200.228C2154 200.228 2146.6 201.201 2139.6 203.146C2132.59 205.092 2126.95 207.427 2122.67 210.152V414.466C2118.78 415.633 2112.55 416.801 2103.99 417.968C2095.82 419.136 2087.25 419.719 2078.3 419.719C2069.74 419.719 2061.96 419.136 2054.95 417.968C2048.34 416.801 2042.69 414.466 2038.02 410.963C2033.35 407.46 2029.66 402.79 2026.93 396.953C2024.6 390.726 2023.43 382.748 2023.43 373.019V34.4415C2027.71 33.6632 2033.94 32.6902 2042.11 31.5227C2050.67 29.9661 2059.23 29.1877 2067.8 29.1877C2076.36 29.1877 2083.95 29.7715 2090.56 30.939C2097.57 32.1065 2103.41 34.4415 2108.08 37.944C2112.75 41.4466 2116.25 46.3112 2118.58 52.5379C2121.31 58.3754 2122.67 66.1588 2122.67 75.8881V133.096C2127.73 131.15 2135.32 129.01 2145.44 126.675C2155.94 123.95 2167.42 122.588 2179.88 122.588C2218.4 122.588 2248.37 132.318 2269.78 151.776C2291.57 170.845 2302.47 199.449 2302.47 237.588V414.466Z" fill="#2FDB4A"/>
<path d="M2657.37 273.197C2657.37 297.326 2653.67 318.924 2646.27 337.994C2638.88 356.674 2628.37 372.435 2614.75 385.278C2601.52 398.12 2585.56 407.85 2566.88 414.466C2548.2 421.081 2527.38 424.389 2504.42 424.389C2481.46 424.389 2460.64 420.887 2441.96 413.882C2423.28 406.877 2407.13 396.953 2393.51 384.11C2380.28 370.879 2369.96 354.923 2362.57 336.242C2355.18 317.562 2351.48 296.547 2351.48 273.197C2351.48 250.236 2355.18 229.415 2362.57 210.735C2369.96 192.055 2380.28 176.294 2393.51 163.451C2407.13 150.219 2423.28 140.101 2441.96 133.096C2460.64 126.091 2481.46 122.588 2504.42 122.588C2527.38 122.588 2548.2 126.286 2566.88 133.68C2585.56 140.685 2601.52 150.803 2614.75 164.035C2628.37 176.878 2638.88 192.639 2646.27 211.319C2653.67 229.999 2657.37 250.625 2657.37 273.197ZM2453.05 273.197C2453.05 296.936 2457.53 315.227 2466.48 328.07C2475.82 340.523 2488.66 346.75 2505.01 346.75C2521.35 346.75 2533.8 340.329 2542.37 327.486C2551.32 314.644 2555.79 296.547 2555.79 273.197C2555.79 249.847 2551.32 231.945 2542.37 219.492C2533.41 206.649 2520.77 200.228 2504.42 200.228C2488.08 200.228 2475.43 206.649 2466.48 219.492C2457.53 231.945 2453.05 249.847 2453.05 273.197Z" fill="#2FDB4A"/>
<path d="M364.871 255.217C345.872 236.02 315.921 164.41 315.02 147.443C313.929 125.271 320.434 106.916 349.445 93.5652C365.956 85.9155 374.046 76.4573 382.822 66.197C383.968 64.8569 385.126 63.5031 386.316 62.1378C396.973 50.2247 403.159 84.3125 405.646 113.528C408.428 145.544 405.548 187.494 398.605 215.12C393.563 235.183 379.842 265.912 376.181 265.232C375.385 265.085 370.35 260.596 364.871 255.217Z" fill="#2FDB4A"/>
<path fill-rule="evenodd" clip-rule="evenodd" d="M315.02 147.443C315.921 164.41 345.872 236.02 364.871 255.217C370.35 260.596 375.385 265.085 376.181 265.232C379.842 265.912 393.563 235.183 398.605 215.12C405.548 187.494 408.428 145.544 405.646 113.528C403.159 84.3125 396.973 50.2247 386.316 62.1378C385.126 63.5031 383.968 64.8569 382.822 66.197C374.046 76.4573 365.956 85.9155 349.445 93.5652C320.434 106.916 313.929 125.271 315.02 147.443Z" fill="#2FDB4A"/>
<path fill-rule="evenodd" clip-rule="evenodd" d="M416.792 401.956C418.739 398.575 420.102 395.701 420.881 393.335C447.558 313.033 500.911 132.855 500.911 54.5621C490.396 51.1811 481.244 49.4906 473.455 49.4906L424.254 50.1909C435.155 141.324 431.636 286.401 381.907 308.586C352.677 317.268 327.541 244.786 295.126 151.318C284.262 119.992 272.58 86.3087 259.653 52.5335L256.733 223.948L325.079 398.913C327.805 404.323 333.257 409.901 341.436 415.649C350.003 421.059 359.934 423.763 371.228 423.763C382.911 423.763 392.841 421.059 401.02 415.649C409.587 409.901 414.845 405.337 416.792 401.956ZM364.871 255.217C345.872 236.02 315.921 164.41 315.02 147.443C313.929 125.271 320.434 106.916 349.445 93.5652C365.956 85.9155 374.046 76.4573 382.822 66.197C383.968 64.8569 385.126 63.5031 386.316 62.1378C396.973 50.2247 403.159 84.3125 405.646 113.528C408.428 145.544 405.548 187.494 398.605 215.12C393.563 235.183 379.842 265.912 376.181 265.232C375.385 265.085 370.35 260.596 364.871 255.217Z" fill="#2FDB4A"/>
<path d="M136.04 255.217C155.039 236.02 184.99 164.41 185.89 147.443C186.982 125.271 180.477 106.916 151.465 93.5652C134.955 85.9155 126.865 76.4573 118.089 66.197C116.943 64.8569 115.785 63.5031 114.595 62.1378C103.937 50.2247 97.7516 84.3125 95.265 113.528C92.4827 145.544 95.3623 187.494 102.305 215.12C107.348 235.183 121.068 265.912 124.729 265.232C125.525 265.085 130.561 260.596 136.04 255.217Z" fill="#2FDB4A"/>
<path fill-rule="evenodd" clip-rule="evenodd" d="M185.89 147.443C184.99 164.41 155.039 236.02 136.04 255.217C130.561 260.596 125.525 265.085 124.729 265.232C121.068 265.912 107.348 235.183 102.305 215.12C95.3623 187.494 92.4827 145.544 95.265 113.528C97.7516 84.3125 103.937 50.2247 114.595 62.1378C115.785 63.5031 116.943 64.8569 118.089 66.197C126.865 76.4573 134.955 85.9155 151.465 93.5652C180.477 106.916 186.982 125.271 185.89 147.443Z" fill="#2FDB4A"/>
<path fill-rule="evenodd" clip-rule="evenodd" d="M84.1187 401.956C82.1715 398.575 80.8085 395.701 80.0296 393.335C53.3531 313.033 0 132.855 0 54.5621C10.5148 51.1811 19.6667 49.4906 27.4554 49.4906L76.6569 50.1909C65.7555 141.324 69.275 286.401 119.003 308.586C148.233 317.268 173.37 244.786 205.785 151.318C216.649 119.992 228.33 86.3087 241.257 52.5335L244.178 223.948L175.831 398.913C173.105 404.323 167.653 409.901 159.475 415.649C150.907 421.059 140.977 423.763 129.683 423.763C118 423.763 108.069 421.059 99.891 415.649C91.3233 409.901 86.0659 405.337 84.1187 401.956ZM136.04 255.217C155.039 236.02 184.99 164.41 185.89 147.443C186.982 125.271 180.477 106.916 151.465 93.5652C134.955 85.9155 126.865 76.4573 118.089 66.197C116.943 64.8569 115.785 63.5031 114.595 62.1378C103.937 50.2247 97.7516 84.3125 95.265 113.528C92.4827 145.544 95.3623 187.494 102.305 215.12C107.348 235.183 121.068 265.912 124.729 265.232C125.525 265.085 130.561 260.596 136.04 255.217Z" fill="#2FDB4A"/>
<path d="M256.733 223.948L259.653 52.5335H241.257L244.178 223.948H256.733Z" fill="#2FDB4A"/>
<path fill-rule="evenodd" clip-rule="evenodd" d="M1355.25 424.389C1348.64 424.389 1340.85 424.195 1331.9 423.806C1322.95 423.416 1313.61 422.638 1303.88 421.471C1294.54 420.303 1285.2 418.746 1275.86 416.801C1266.52 415.244 1257.96 412.909 1250.18 409.796C1228.77 401.623 1218.07 387.418 1218.07 367.181V94.5682C1218.07 86.3956 1220.21 80.1689 1224.49 75.8881C1229.16 71.218 1235.39 67.5209 1243.17 64.7967C1256.4 60.1267 1272.94 56.8187 1292.79 54.8729C1312.64 52.5379 1333.07 51.3704 1354.08 51.3704C1403.9 51.3704 1442.23 59.7375 1469.08 76.4718C1495.94 93.2061 1509.36 119.086 1509.36 154.111C1509.36 171.624 1504.3 186.801 1494.18 199.644C1484.07 212.097 1470.45 221.243 1453.32 227.08C1472.78 232.529 1488.93 242.453 1501.77 256.852C1515.01 271.251 1521.62 289.348 1521.62 311.141C1521.62 349.669 1507.22 378.273 1478.42 396.953C1450.01 415.244 1408.96 424.389 1355.25 424.389ZM1423.4 135.07C1423.4 117.74 1370.63 116.952 1370.63 135.07C1370.63 157.126 1423.4 150.824 1423.4 135.07ZM1392.68 103.561C1392.68 86.2317 1339.91 85.444 1339.91 103.561C1339.91 125.617 1392.68 119.316 1392.68 103.561ZM1295.79 109.863C1314.7 94.8966 1362.75 124.042 1362.75 153.975C1362.75 183.908 1314.7 212.457 1295.79 197.491C1289.11 191.286 1293.13 182.118 1297.34 172.526C1300.07 166.289 1302.88 159.872 1302.88 153.975C1302.88 148.1 1300.09 141.619 1297.37 135.293C1293.15 125.502 1289.1 116.084 1295.79 109.863ZM1423.4 172.284C1423.4 189.614 1370.63 190.402 1370.63 172.284C1370.63 150.228 1423.4 156.53 1423.4 172.284ZM1392.68 203.793C1392.68 221.122 1339.91 221.91 1339.91 203.793C1339.91 181.737 1392.68 188.038 1392.68 203.793ZM1423.4 295.914C1423.4 278.585 1370.63 277.797 1370.63 295.914C1370.63 317.97 1423.4 311.669 1423.4 295.914ZM1392.68 264.406C1392.68 247.076 1339.91 246.289 1339.91 264.406C1339.91 286.462 1392.68 280.16 1392.68 264.406ZM1295.79 270.708C1314.7 255.741 1362.75 284.886 1362.75 314.819C1362.75 344.752 1314.7 373.302 1295.79 358.335C1289.11 352.13 1293.13 342.962 1297.34 333.37C1300.07 327.133 1302.88 320.717 1302.88 314.819C1302.88 308.945 1300.09 302.463 1297.37 296.137C1293.15 286.347 1289.1 276.928 1295.79 270.708ZM1423.4 333.129C1423.4 350.458 1370.63 351.246 1370.63 333.129C1370.63 311.073 1423.4 317.374 1423.4 333.129ZM1392.68 364.637C1392.68 381.967 1339.91 382.754 1339.91 364.637C1339.91 342.581 1392.68 348.883 1392.68 364.637Z" fill="#2FDB4A"/>
</svg>
