<svg width="2027" height="323" viewBox="0 0 2027 323" fill="none" xmlns="http://www.w3.org/2000/svg">
<path d="M518.755 322.837C501.288 322.837 485.006 320.469 469.907 315.732C455.105 310.699 442.079 303.298 430.829 293.529C419.876 283.759 411.142 271.473 404.629 256.671C398.412 241.869 395.304 224.55 395.304 204.715C395.304 185.176 398.412 168.45 404.629 154.536C411.142 140.325 419.58 128.78 429.941 119.898C440.303 110.721 452.145 104.06 465.467 99.9152C478.789 95.4745 492.407 93.2542 506.321 93.2542C522.011 93.2542 536.221 95.6225 548.951 100.359C561.977 105.096 573.079 111.609 582.256 119.898C591.73 128.187 598.983 138.105 604.016 149.651C609.344 161.197 612.009 173.778 612.009 187.396C612.009 197.462 609.197 205.159 603.572 210.488C597.947 215.817 590.102 219.221 580.036 220.702L470.351 237.132C473.608 246.902 480.269 254.303 490.334 259.335C500.4 264.072 511.946 266.441 524.972 266.441C537.109 266.441 548.507 264.96 559.165 262C570.119 258.743 579 255.043 585.809 250.898C590.546 253.859 594.542 258.003 597.799 263.332C601.055 268.661 602.684 274.286 602.684 280.207C602.684 293.529 596.467 303.446 584.033 309.959C574.559 314.992 563.902 318.396 552.06 320.173C540.218 321.949 529.116 322.837 518.755 322.837ZM506.321 148.319C499.216 148.319 492.999 149.503 487.67 151.871C482.637 154.239 478.493 157.348 475.236 161.197C471.98 164.749 469.463 168.894 467.687 173.63C466.207 178.071 465.319 182.66 465.023 187.396L540.958 174.963C540.07 169.042 536.813 163.121 531.189 157.2C525.564 151.279 517.274 148.319 506.321 148.319Z" fill="white"/>
<path d="M649.234 26.6441C652.195 25.7559 656.931 24.8678 663.444 23.9797C669.957 22.7955 676.618 22.2034 683.427 22.2034C689.94 22.2034 695.713 22.6474 700.746 23.5356C706.075 24.4237 710.516 26.2 714.068 28.8644C717.621 31.5288 720.285 35.2294 722.061 39.9661C723.838 44.4068 724.726 50.3277 724.726 57.7288V101.247C732.127 98.2869 739.084 96.2146 745.597 95.0305C752.406 93.8463 759.807 93.2542 767.8 93.2542C782.01 93.2542 795.481 95.7706 808.211 100.803C820.94 105.836 832.19 113.237 841.96 123.007C851.729 132.48 859.426 144.322 865.051 158.532C870.676 172.742 873.488 189.173 873.488 207.824C873.488 227.067 870.528 243.941 864.607 258.447C858.982 272.657 850.989 284.499 840.627 293.973C830.266 303.446 817.536 310.699 802.438 315.732C787.635 320.469 771.205 322.837 753.146 322.837C733.607 322.837 717.029 320.469 703.411 315.732C689.792 311.291 678.247 305.666 668.773 298.857C655.747 289.68 649.234 277.838 649.234 263.332V26.6441ZM753.146 263.332C766.764 263.332 777.274 258.743 784.675 249.566C792.372 240.093 796.221 226.178 796.221 207.824C796.221 189.173 792.372 175.259 784.675 166.081C776.978 156.904 766.616 152.315 753.59 152.315C747.669 152.315 742.488 152.907 738.048 154.091C733.903 155.276 729.314 157.052 724.282 159.42V256.227C727.538 258.299 731.387 260.076 735.827 261.556C740.564 262.74 746.337 263.332 753.146 263.332Z" fill="white"/>
<path d="M1199.34 39.9661C1199.34 28.7164 1203.04 19.2429 1210.44 11.5457C1218.14 3.84858 1228.21 0 1240.64 0C1253.07 0 1262.99 3.84858 1270.39 11.5457C1278.09 19.2429 1281.94 28.7164 1281.94 39.9661C1281.94 51.2158 1278.09 60.6892 1270.39 68.3864C1262.99 76.0836 1253.07 79.9322 1240.64 79.9322C1228.21 79.9322 1218.14 76.0836 1210.44 68.3864C1203.04 60.6892 1199.34 51.2158 1199.34 39.9661ZM1278.38 315.288C1275.13 315.88 1270.24 316.62 1263.73 317.508C1257.51 318.692 1251.15 319.285 1244.64 319.285C1238.12 319.285 1232.2 318.84 1226.87 317.952C1221.84 317.064 1217.55 315.288 1213.99 312.624C1210.44 309.959 1207.63 306.407 1205.56 301.966C1203.78 297.229 1202.89 291.16 1202.89 283.759V103.024C1206.15 102.432 1210.89 101.691 1217.1 100.803C1223.62 99.6191 1230.13 99.0271 1236.64 99.0271C1243.16 99.0271 1248.93 99.4711 1253.96 100.359C1259.29 101.247 1263.73 103.024 1267.28 105.688C1270.84 108.352 1273.5 112.053 1275.28 116.79C1277.35 121.23 1278.38 127.151 1278.38 134.552V315.288Z" fill="white"/>
<path d="M1448.12 152.759C1440.72 152.759 1433.61 153.943 1426.8 156.312C1420.29 158.68 1414.52 162.233 1409.49 166.969C1404.75 171.41 1400.9 177.035 1397.94 183.844C1394.98 190.653 1393.5 198.646 1393.5 207.824C1393.5 226.178 1398.68 239.944 1409.04 249.122C1419.7 258.299 1432.58 262.888 1447.68 262.888C1456.56 262.888 1464.25 261.852 1470.77 259.78C1477.28 257.707 1483.05 255.487 1488.09 253.118C1494.01 257.263 1498.45 261.852 1501.41 266.885C1504.37 271.621 1505.85 277.394 1505.85 284.203C1505.85 296.341 1500.08 305.814 1488.53 312.624C1476.98 319.137 1461 322.393 1440.57 322.393C1421.92 322.393 1405.04 319.729 1389.95 314.4C1374.85 308.775 1361.82 301.078 1350.87 291.308C1340.21 281.243 1331.92 269.253 1326 255.339C1320.08 241.425 1317.12 226.03 1317.12 209.156C1317.12 189.617 1320.23 172.594 1326.44 158.088C1332.96 143.286 1341.69 131.148 1352.64 121.675C1363.6 112.201 1376.18 105.096 1390.39 100.359C1404.9 95.6225 1420.14 93.2542 1436.13 93.2542C1457.44 93.2542 1473.88 97.1028 1485.42 104.8C1496.97 112.497 1502.74 122.415 1502.74 134.552C1502.74 140.177 1501.41 145.506 1498.74 150.539C1496.08 155.276 1492.97 159.42 1489.42 162.973C1484.38 160.604 1478.32 158.384 1471.21 156.312C1464.11 153.943 1456.41 152.759 1448.12 152.759Z" fill="white"/>
<path d="M1756.86 315.288C1753.9 316.176 1749.16 317.064 1742.65 317.952C1736.43 318.84 1729.92 319.285 1723.11 319.285C1716.6 319.285 1710.68 318.84 1705.35 317.952C1700.32 317.064 1696.02 315.288 1692.47 312.624C1688.92 309.959 1686.11 306.407 1684.03 301.966C1682.26 297.229 1681.37 291.16 1681.37 283.759V185.176C1681.37 173.038 1678.26 164.601 1672.04 159.864C1666.12 154.832 1658.72 152.315 1649.84 152.315C1643.92 152.315 1638.29 153.055 1632.97 154.536C1627.64 156.016 1623.34 157.792 1620.09 159.864V315.288C1617.13 316.176 1612.39 317.064 1605.88 317.952C1599.66 318.84 1593.15 319.285 1586.34 319.285C1579.83 319.285 1573.9 318.84 1568.58 317.952C1563.54 317.064 1559.25 315.288 1555.7 312.624C1552.15 309.959 1549.33 306.407 1547.26 301.966C1545.48 297.229 1544.6 291.16 1544.6 283.759V26.2C1547.85 25.6079 1552.59 24.8678 1558.81 23.9797C1565.32 22.7955 1571.83 22.2034 1578.35 22.2034C1584.86 22.2034 1590.63 22.6474 1595.66 23.5356C1600.99 24.4237 1605.43 26.2 1608.99 28.8644C1612.54 31.5288 1615.2 35.2294 1616.98 39.9661C1619.05 44.4068 1620.09 50.3277 1620.09 57.7288V101.247C1623.94 99.7672 1629.71 98.1389 1637.41 96.3627C1645.4 94.2903 1654.13 93.2542 1663.61 93.2542C1692.92 93.2542 1715.71 100.655 1731.99 115.458C1748.57 129.964 1756.86 151.723 1756.86 180.735V315.288Z" fill="white"/>
<path d="M2026.84 207.824C2026.84 226.178 2024.02 242.609 2018.4 257.115C2012.77 271.325 2004.78 283.315 1994.42 293.085C1984.35 302.854 1972.22 310.255 1958.01 315.288C1943.8 320.321 1927.96 322.837 1910.49 322.837C1893.02 322.837 1877.19 320.173 1862.98 314.844C1848.77 309.515 1836.48 301.966 1826.12 292.196C1816.05 282.131 1808.21 269.993 1802.58 255.783C1796.96 241.573 1794.15 225.586 1794.15 207.824C1794.15 190.357 1796.96 174.519 1802.58 160.308C1808.21 146.098 1816.05 134.108 1826.12 124.339C1836.48 114.273 1848.77 106.576 1862.98 101.247C1877.19 95.9186 1893.02 93.2542 1910.49 93.2542C1927.96 93.2542 1943.8 96.0666 1958.01 101.691C1972.22 107.02 1984.35 114.717 1994.42 124.783C2004.78 134.552 2012.77 146.542 2018.4 160.752C2024.02 174.963 2026.84 190.653 2026.84 207.824ZM1871.41 207.824C1871.41 225.882 1874.82 239.796 1881.63 249.566C1888.73 259.039 1898.5 263.776 1910.93 263.776C1923.37 263.776 1932.84 258.891 1939.36 249.122C1946.16 239.352 1949.57 225.586 1949.57 207.824C1949.57 190.061 1946.16 176.443 1939.36 166.969C1932.55 157.2 1922.92 152.315 1910.49 152.315C1898.06 152.315 1888.44 157.2 1881.63 166.969C1874.82 176.443 1871.41 190.061 1871.41 207.824Z" fill="white"/>
<path d="M277.561 194.146C263.108 179.542 240.324 125.068 239.639 112.161C238.809 95.2948 243.757 81.3322 265.826 71.176C278.386 65.3567 284.54 58.1618 291.216 50.3567C292.088 49.3373 292.969 48.3074 293.874 47.2688C301.981 38.2064 306.687 64.1373 308.579 86.3618C310.695 110.717 308.505 142.628 303.223 163.644C299.387 178.906 288.95 202.282 286.165 201.765C285.559 201.652 281.728 198.238 277.561 194.146Z" fill="white"/>
<path fill-rule="evenodd" clip-rule="evenodd" d="M239.639 112.161C240.324 125.068 263.108 179.542 277.561 194.146C281.728 198.238 285.559 201.652 286.165 201.765C288.95 202.282 299.387 178.906 303.223 163.644C308.505 142.628 310.695 110.717 308.579 86.3618C306.687 64.1373 301.981 38.2064 293.874 47.2688C292.969 48.3074 292.088 49.3373 291.216 50.3567C284.54 58.1618 278.386 65.3567 265.826 71.176C243.757 81.3322 238.809 95.2948 239.639 112.161Z" fill="white"/>
<path fill-rule="evenodd" clip-rule="evenodd" d="M317.058 305.772C318.539 303.2 319.576 301.014 320.168 299.214C340.461 238.127 381.048 101.064 381.048 41.5059C373.049 38.934 366.087 37.648 360.162 37.648L322.734 38.1807C331.027 107.507 328.349 217.868 290.521 234.745C268.285 241.349 249.163 186.211 224.505 115.109C216.241 91.2792 207.355 65.6559 197.521 39.9627L195.299 170.36L247.291 303.457C249.365 307.572 253.512 311.816 259.733 316.188C266.251 320.303 273.805 322.361 282.396 322.361C291.284 322.361 298.838 320.303 305.06 316.188C311.577 311.816 315.576 308.344 317.058 305.772ZM277.561 194.146C263.108 179.542 240.324 125.068 239.639 112.161C238.809 95.2948 243.757 81.3322 265.826 71.176C278.386 65.3567 284.54 58.1618 291.216 50.3567C292.088 49.3373 292.969 48.3074 293.874 47.2688C301.981 38.2064 306.687 64.1373 308.579 86.3618C310.695 110.717 308.505 142.628 303.223 163.644C299.387 178.906 288.95 202.282 286.165 201.765C285.559 201.652 281.728 198.238 277.561 194.146Z" fill="white"/>
<path d="M103.487 194.146C117.939 179.542 140.724 125.068 141.409 112.161C142.239 95.2948 137.29 81.3322 115.221 71.176C102.661 65.3567 96.5074 58.1618 89.8314 50.3567C88.9595 49.3373 88.0786 48.3074 87.1734 47.2688C79.066 38.2064 74.3606 64.1373 72.469 86.3618C70.3525 110.717 72.543 142.628 77.8247 163.644C81.6606 178.906 92.0979 202.282 94.8828 201.765C95.4882 201.652 99.3191 198.238 103.487 194.146Z" fill="white"/>
<path fill-rule="evenodd" clip-rule="evenodd" d="M141.409 112.161C140.724 125.068 117.939 179.542 103.487 194.146C99.3191 198.238 95.4882 201.652 94.8828 201.765C92.0979 202.282 81.6606 178.906 77.8247 163.644C72.543 142.628 70.3525 110.717 72.469 86.3618C74.3606 64.1373 79.066 38.2064 87.1734 47.2688C88.0786 48.3074 88.9595 49.3373 89.8314 50.3567C96.5074 58.1618 102.661 65.3567 115.221 71.176C137.29 81.3322 142.239 95.2948 141.409 112.161Z" fill="white"/>
<path fill-rule="evenodd" clip-rule="evenodd" d="M63.9899 305.772C62.5087 303.2 61.4718 301.014 60.8793 299.214C40.5862 238.127 0 101.064 0 41.5059C7.99874 38.934 14.9606 37.648 20.8856 37.648L58.3136 38.1807C50.0208 107.507 52.6982 217.868 90.5269 234.745C112.762 241.349 131.884 186.211 156.542 115.109C164.807 91.2792 173.693 65.6559 183.527 39.9627L185.749 170.36L133.757 303.457C131.683 307.572 127.535 311.816 121.314 316.188C114.797 320.303 107.242 322.361 98.6511 322.361C89.7636 322.361 82.2093 320.303 75.988 316.188C69.4706 311.816 65.4712 308.344 63.9899 305.772ZM103.487 194.146C117.939 179.542 140.724 125.068 141.409 112.161C142.239 95.2948 137.29 81.3322 115.221 71.176C102.661 65.3567 96.5074 58.1618 89.8314 50.3567C88.9595 49.3373 88.0786 48.3074 87.1734 47.2688C79.066 38.2064 74.3606 64.1373 72.469 86.3618C70.3525 110.717 72.543 142.628 77.8247 163.644C81.6606 178.906 92.0979 202.282 94.8828 201.765C95.4882 201.652 99.3191 198.238 103.487 194.146Z" fill="white"/>
<path d="M195.299 170.36L197.521 39.9627H183.527L185.749 170.36H195.299Z" fill="white"/>
<path fill-rule="evenodd" clip-rule="evenodd" d="M1036.31 322.837C1031.27 322.837 1025.35 322.689 1018.54 322.393C1011.73 322.097 1004.63 321.505 997.228 320.617C990.123 319.729 983.017 318.544 975.912 317.064C968.807 315.88 962.294 314.104 956.373 311.735C940.091 305.518 931.95 294.713 931.95 279.318V71.9389C931.95 65.722 933.578 60.9853 936.834 57.7288C940.387 54.1762 945.124 51.3638 951.045 49.2915C961.11 45.7389 973.692 43.2226 988.79 41.7423C1003.89 39.9661 1019.43 39.0779 1035.42 39.0779C1073.31 39.0779 1102.47 45.4429 1122.9 58.1728C1143.33 70.9028 1153.54 90.5898 1153.54 117.234C1153.54 130.556 1149.69 142.102 1141.99 151.871C1134.3 161.345 1123.94 168.302 1110.91 172.742C1125.71 176.887 1138 184.436 1147.77 195.39C1157.83 206.343 1162.86 220.109 1162.86 236.688C1162.86 265.996 1151.91 287.756 1130 301.966C1108.39 315.88 1077.16 322.837 1036.31 322.837ZM1088.15 102.749C1088.15 89.5661 1048 88.9669 1048 102.749C1048 119.527 1088.15 114.733 1088.15 102.749ZM1064.78 78.7801C1064.78 65.5973 1024.63 64.9981 1024.63 78.7801C1024.63 95.5583 1064.78 90.7645 1064.78 78.7801ZM991.077 83.5739C1005.46 72.1887 1042.01 94.3599 1042.01 117.13C1042.01 139.901 1005.46 161.618 991.077 150.233C985.993 145.513 989.051 138.539 992.25 131.242C994.33 126.497 996.469 121.616 996.469 117.13C996.469 112.661 994.346 107.731 992.273 102.918C989.066 95.4706 985.98 88.3061 991.077 83.5739ZM1088.15 131.058C1088.15 144.241 1048 144.84 1048 131.058C1048 114.28 1088.15 119.074 1088.15 131.058ZM1064.78 155.027C1064.78 168.21 1024.63 168.809 1024.63 155.027C1024.63 138.249 1064.78 143.043 1064.78 155.027ZM1088.15 225.105C1088.15 211.922 1048 211.323 1048 225.105C1048 241.883 1088.15 237.089 1088.15 225.105ZM1064.78 201.136C1064.78 187.953 1024.63 187.354 1024.63 201.136C1024.63 217.914 1064.78 213.12 1064.78 201.136ZM991.077 205.93C1005.46 194.545 1042.01 216.716 1042.01 239.486C1042.01 262.256 1005.46 283.974 991.077 272.589C985.993 267.869 989.051 260.895 992.25 253.598C994.33 248.853 996.469 243.972 996.469 239.486C996.469 235.017 994.346 230.087 992.273 225.274C989.066 217.827 985.98 210.662 991.077 205.93ZM1088.15 253.414C1088.15 266.597 1048 267.196 1048 253.414C1048 236.636 1088.15 241.43 1088.15 253.414ZM1064.78 277.383C1064.78 290.566 1024.63 291.165 1024.63 277.383C1024.63 260.605 1064.78 265.399 1064.78 277.383Z" fill="white"/>
</svg>
