<svg width="1002" height="511" viewBox="0 0 1002 511" fill="none" xmlns="http://www.w3.org/2000/svg">
    <path d="M186.127 280.716C212.051 254.522 252.921 156.809 254.149 133.657C255.639 103.403 246.762 78.3581 207.176 60.1405C184.647 49.7023 173.608 36.7965 161.633 22.7961C160.069 20.9675 158.489 19.1202 156.865 17.2573C142.323 1.00166 133.883 47.5149 130.49 87.3799C126.693 131.067 130.622 188.308 140.096 226.004C146.977 253.381 165.699 295.311 170.694 294.383C171.78 294.181 178.652 288.056 186.127 280.716Z"
          fill="white"/>
    <path d="M574.798 469.181C573.735 472.41 571.875 476.331 569.218 480.945C566.561 485.558 559.387 491.786 547.697 499.629C536.537 507.01 522.987 510.701 507.045 510.701C491.634 510.701 478.084 507.01 466.393 499.629C455.234 491.786 447.794 484.174 444.075 476.793L350.815 238.05H333.684L240.424 476.793C236.704 484.174 229.265 491.786 218.105 499.629C206.415 507.01 192.864 510.701 177.454 510.701C161.512 510.701 147.961 507.01 136.802 499.629C125.111 491.786 117.937 485.558 115.28 480.945C112.623 476.331 110.763 472.41 109.701 469.181C73.3001 359.607 0.499023 113.752 0.499023 6.92006C14.8467 2.30669 27.3345 0 37.9624 0L105.099 0.955489C90.2234 125.308 95.0259 323.268 162.881 353.54C202.766 365.386 237.065 266.484 281.296 138.945C296.12 96.2004 312.059 50.2389 329.698 4.15203H354.8C372.439 50.2389 388.379 96.2004 403.203 138.945C447.433 266.484 481.733 365.386 521.618 353.54C571.008 331.505 588.064 220.626 587.5 113.958H671.087C666.599 137.564 661.152 162.623 655.095 188.261C630.686 291.574 596.357 404.282 574.798 469.181Z"
          fill="white"/>
    <path fill-rule="evenodd" clip-rule="evenodd"
          d="M774.359 508.99C765.332 508.99 754.712 508.725 742.498 508.194C730.284 507.663 717.54 506.601 704.264 505.008C691.519 503.414 678.775 501.29 666.03 498.635C653.285 496.511 641.602 493.325 630.982 489.077C619.195 484.576 609.786 478.735 602.756 471.553L616.314 424.421L653.891 293.791L684.247 188.261H718.013C791.875 188.261 840.412 198.813 840.412 141.833C840.412 84.8544 787.654 93.2958 718.013 93.2957H587.172V58.9441C587.172 47.7925 590.093 39.296 595.934 33.4548C602.307 27.0824 610.803 22.0376 621.424 18.3205C637.312 12.7127 657.325 8.46977 680.205 5.74071C681.459 5.59294 682.724 5.44948 683.999 5.31032C685.691 5.12572 687.401 4.94869 689.129 4.77924C716.212 1.59308 744.091 0 772.766 0C840.738 0 893.044 11.4171 929.685 34.2513C966.326 57.0855 984.647 92.3988 984.647 140.191C984.647 164.088 977.743 184.798 963.936 202.322C950.13 219.315 931.544 231.794 908.179 239.759C934.73 247.193 956.768 260.735 974.292 280.383C992.346 300.031 1001.37 324.724 1001.37 354.461C1001.37 407.033 981.726 446.063 942.43 471.553C903.665 496.511 847.641 508.99 774.359 508.99ZM867.355 333.684C867.355 310.037 795.341 308.963 795.341 333.684C795.341 363.78 867.355 355.181 867.355 333.684ZM825.436 290.69C825.436 267.044 753.422 265.969 753.422 290.69C753.422 320.786 825.436 312.187 825.436 290.69ZM867.355 384.464C867.355 408.11 795.341 409.185 795.341 384.464C795.341 354.368 867.355 362.967 867.355 384.464ZM825.436 427.457C825.436 451.104 753.422 452.179 753.422 427.457C753.422 397.362 825.436 405.96 825.436 427.457ZM680.663 296.755C706.46 276.333 772.025 316.102 772.025 356.946C772.025 397.79 706.46 436.747 680.663 416.325C671.545 407.857 677.029 395.348 682.767 382.26C686.498 373.749 690.337 364.993 690.337 356.946C690.337 348.93 686.528 340.087 682.811 331.455C677.057 318.096 671.522 305.243 680.663 296.755Z"
          fill="white"/>
</svg>
