<svg width="2658" height="425" viewBox="0 0 2658 425" fill="none" xmlns="http://www.w3.org/2000/svg">
    <path d="M682.434 424.389C659.473 424.389 638.069 421.276 618.221 415.049C598.763 408.433 581.639 398.704 566.851 385.862C552.452 373.019 540.971 356.868 532.409 337.41C524.237 317.952 520.151 295.185 520.151 269.111C520.151 243.426 524.237 221.437 532.409 203.146C540.971 184.466 552.062 169.289 565.683 157.614C579.304 145.549 594.871 136.793 612.384 131.345C629.896 125.507 647.798 122.588 666.089 122.588C686.715 122.588 705.395 125.702 722.13 131.928C739.253 138.155 753.847 146.717 765.911 157.614C778.365 168.51 787.899 181.548 794.515 196.725C801.52 211.903 805.023 228.443 805.023 246.344C805.023 259.576 801.326 269.694 793.931 276.7C786.537 283.705 776.224 288.18 762.992 290.126L618.805 311.725C623.086 324.567 631.842 334.297 645.074 340.913C658.306 347.139 673.483 350.253 690.607 350.253C706.563 350.253 721.546 348.307 735.556 344.415C749.955 340.134 761.63 335.27 770.581 329.821C776.808 333.713 782.062 339.161 786.343 346.166C790.623 353.171 792.764 360.566 792.764 368.349C792.764 385.862 784.591 398.899 768.246 407.46C755.793 414.076 741.783 418.552 726.216 420.887C710.649 423.222 696.055 424.389 682.434 424.389ZM666.089 194.974C656.749 194.974 648.577 196.531 641.571 199.644C634.956 202.757 629.507 206.844 625.226 211.903C620.945 216.573 617.638 222.021 615.302 228.248C613.357 234.085 612.189 240.118 611.8 246.344L711.622 229.999C710.454 222.216 706.174 214.432 698.779 206.649C691.385 198.866 680.488 194.974 666.089 194.974Z"
          fill="white"/>
    <path d="M853.958 35.0253C857.849 33.8577 864.076 32.6902 872.638 31.5227C881.2 29.9661 889.956 29.1877 898.907 29.1877C907.468 29.1877 915.057 29.7715 921.673 30.939C928.678 32.1065 934.516 34.4415 939.186 37.944C943.856 41.4466 947.358 46.3112 949.693 52.5379C952.028 58.3754 953.196 66.1588 953.196 75.8881V133.096C962.925 129.204 972.071 126.48 980.632 124.923C989.583 123.367 999.312 122.588 1009.82 122.588C1028.5 122.588 1046.21 125.896 1062.94 132.512C1079.68 139.128 1094.46 148.857 1107.31 161.7C1120.15 174.153 1130.27 189.72 1137.66 208.4C1145.06 227.08 1148.75 248.679 1148.75 273.197C1148.75 298.493 1144.86 320.676 1137.08 339.745C1129.68 358.425 1119.18 373.992 1105.56 386.445C1091.93 398.899 1075.2 408.433 1055.35 415.049C1035.89 421.276 1014.3 424.389 990.556 424.389C964.871 424.389 943.078 421.276 925.176 415.049C907.274 409.212 892.096 401.818 879.643 392.867C862.519 380.802 853.958 365.236 853.958 346.166V35.0253ZM990.556 346.166C1008.46 346.166 1022.27 340.134 1032 328.07C1042.12 315.616 1047.18 297.326 1047.18 273.197C1047.18 248.679 1042.12 230.388 1032 218.324C1021.88 206.26 1008.26 200.228 991.14 200.228C983.357 200.228 976.546 201.006 970.709 202.563C965.26 204.119 959.228 206.454 952.612 209.568V336.826C956.893 339.55 961.952 341.885 967.79 343.831C974.017 345.388 981.605 346.166 990.556 346.166Z"
          fill="white"/>
    <path d="M1570.07 52.5379C1570.07 37.7494 1574.93 25.296 1584.66 15.1776C1594.78 5.0592 1608.01 0 1624.36 0C1640.7 0 1653.74 5.0592 1663.47 15.1776C1673.59 25.296 1678.65 37.7494 1678.65 52.5379C1678.65 67.3263 1673.59 79.7798 1663.47 89.8981C1653.74 100.017 1640.7 105.076 1624.36 105.076C1608.01 105.076 1594.78 100.017 1584.66 89.8981C1574.93 79.7798 1570.07 67.3263 1570.07 52.5379ZM1673.98 414.466C1669.7 415.244 1663.28 416.217 1654.71 417.384C1646.54 418.941 1638.17 419.719 1629.61 419.719C1621.05 419.719 1613.27 419.136 1606.26 417.968C1599.65 416.801 1594 414.466 1589.33 410.963C1584.66 407.46 1580.97 402.79 1578.24 396.953C1575.91 390.726 1574.74 382.748 1574.74 373.019V135.431C1579.02 134.653 1585.25 133.68 1593.42 132.512C1601.98 130.956 1610.54 130.177 1619.11 130.177C1627.67 130.177 1635.26 130.761 1641.87 131.928C1648.88 133.096 1654.71 135.431 1659.38 138.934C1664.05 142.436 1667.56 147.301 1669.89 153.527C1672.62 159.365 1673.98 167.148 1673.98 176.878V414.466Z"
          fill="white"/>
    <path d="M1897.1 200.811C1887.38 200.811 1878.04 202.368 1869.08 205.482C1860.52 208.595 1852.93 213.265 1846.32 219.492C1840.09 225.329 1835.03 232.723 1831.14 241.674C1827.25 250.625 1825.3 261.133 1825.3 273.197C1825.3 297.326 1832.11 315.422 1845.73 327.486C1859.74 339.55 1876.67 345.583 1896.52 345.583C1908.2 345.583 1918.31 344.22 1926.88 341.496C1935.44 338.772 1943.03 335.853 1949.64 332.74C1957.43 338.188 1963.26 344.22 1967.16 350.836C1971.05 357.063 1972.99 364.652 1972.99 373.603C1972.99 389.559 1965.4 402.012 1950.23 410.963C1935.05 419.525 1914.03 423.806 1887.18 423.806C1862.66 423.806 1840.48 420.303 1820.63 413.298C1800.79 405.904 1783.66 395.785 1769.26 382.943C1755.25 369.711 1744.36 353.95 1736.57 335.659C1728.79 317.368 1724.9 297.131 1724.9 274.948C1724.9 249.263 1728.98 226.886 1737.16 207.817C1745.72 188.358 1757.2 172.402 1771.6 159.949C1786 147.495 1802.54 138.155 1821.22 131.928C1840.29 125.702 1860.33 122.588 1881.34 122.588C1909.36 122.588 1930.96 127.648 1946.14 137.766C1961.32 147.884 1968.91 160.922 1968.91 176.878C1968.91 184.272 1967.16 191.277 1963.65 197.893C1960.15 204.119 1956.06 209.568 1951.39 214.238C1944.78 211.124 1936.8 208.206 1927.46 205.482C1918.12 202.368 1908 200.811 1897.1 200.811Z"
          fill="white"/>
    <path d="M2302.96 414.466C2299.07 415.633 2292.85 416.801 2284.28 417.968C2276.11 419.136 2267.55 419.719 2258.6 419.719C2250.04 419.719 2242.25 419.136 2235.25 417.968C2228.63 416.801 2222.99 414.466 2218.32 410.963C2213.65 407.46 2209.95 402.79 2207.23 396.953C2204.89 390.726 2203.73 382.748 2203.73 373.019V243.426C2203.73 227.47 2199.64 216.378 2191.47 210.152C2183.68 203.536 2173.95 200.228 2162.28 200.228C2154.5 200.228 2147.1 201.201 2140.1 203.146C2133.09 205.092 2127.45 207.427 2123.17 210.152V414.466C2119.28 415.633 2113.05 416.801 2104.49 417.968C2096.32 419.136 2087.75 419.719 2078.8 419.719C2070.24 419.719 2062.46 419.136 2055.45 417.968C2048.84 416.801 2043.19 414.466 2038.52 410.963C2033.85 407.46 2030.16 402.79 2027.43 396.953C2025.1 390.726 2023.93 382.748 2023.93 373.019V34.4415C2028.21 33.6632 2034.44 32.6902 2042.61 31.5227C2051.17 29.9661 2059.73 29.1877 2068.3 29.1877C2076.86 29.1877 2084.45 29.7715 2091.06 30.939C2098.07 32.1065 2103.9 34.4415 2108.57 37.944C2113.24 41.4466 2116.75 46.3112 2119.08 52.5379C2121.81 58.3754 2123.17 66.1588 2123.17 75.8881V133.096C2128.23 131.15 2135.82 129.01 2145.93 126.675C2156.44 123.95 2167.92 122.588 2180.38 122.588C2218.9 122.588 2248.87 132.318 2270.27 151.776C2292.07 170.845 2302.96 199.449 2302.96 237.588V414.466Z"
          fill="white"/>
    <path d="M2657.86 273.197C2657.86 297.326 2654.17 318.924 2646.77 337.994C2639.38 356.674 2628.87 372.435 2615.25 385.278C2602.02 398.12 2586.06 407.85 2567.38 414.466C2548.7 421.081 2527.88 424.389 2504.92 424.389C2481.96 424.389 2461.14 420.887 2442.46 413.882C2423.78 406.877 2407.63 396.953 2394.01 384.11C2380.78 370.879 2370.46 354.923 2363.07 336.242C2355.67 317.562 2351.98 296.547 2351.98 273.197C2351.98 250.236 2355.67 229.415 2363.07 210.735C2370.46 192.055 2380.78 176.294 2394.01 163.451C2407.63 150.219 2423.78 140.101 2442.46 133.096C2461.14 126.091 2481.96 122.588 2504.92 122.588C2527.88 122.588 2548.7 126.286 2567.38 133.68C2586.06 140.685 2602.02 150.803 2615.25 164.035C2628.87 176.878 2639.38 192.639 2646.77 211.319C2654.17 229.999 2657.86 250.625 2657.86 273.197ZM2453.55 273.197C2453.55 296.936 2458.03 315.227 2466.98 328.07C2476.32 340.523 2489.16 346.75 2505.5 346.75C2521.85 346.75 2534.3 340.329 2542.86 327.486C2551.82 314.644 2556.29 296.547 2556.29 273.197C2556.29 249.847 2551.82 231.945 2542.86 219.492C2533.91 206.649 2521.27 200.228 2504.92 200.228C2488.58 200.228 2475.93 206.649 2466.98 219.492C2458.03 231.945 2453.55 249.847 2453.55 273.197Z"
          fill="white"/>
    <path d="M365.37 255.217C346.371 236.02 316.42 164.41 315.519 147.443C314.428 125.271 320.933 106.916 349.944 93.5652C366.455 85.9155 374.545 76.4573 383.321 66.197C384.467 64.8569 385.625 63.5031 386.815 62.1378C397.472 50.2247 403.658 84.3125 406.145 113.528C408.927 145.544 406.047 187.494 399.104 215.12C394.062 235.183 380.341 265.912 376.68 265.232C375.885 265.085 370.849 260.596 365.37 255.217Z"
          fill="white"/>
    <path fill-rule="evenodd" clip-rule="evenodd"
          d="M315.519 147.443C316.42 164.41 346.371 236.02 365.37 255.217C370.849 260.596 375.885 265.085 376.68 265.232C380.341 265.912 394.062 235.183 399.104 215.12C406.047 187.494 408.927 145.544 406.145 113.528C403.658 84.3125 397.472 50.2247 386.815 62.1378C385.625 63.5031 384.467 64.8569 383.321 66.197C374.545 76.4573 366.455 85.9155 349.944 93.5652C320.933 106.916 314.428 125.271 315.519 147.443Z"
          fill="white"/>
    <path fill-rule="evenodd" clip-rule="evenodd"
          d="M365.37 255.217C346.371 236.02 316.42 164.41 315.519 147.443C314.428 125.271 320.933 106.916 349.944 93.5652C366.455 85.9155 374.545 76.4573 383.321 66.197C384.467 64.8569 385.625 63.5031 386.815 62.1378C397.472 50.2247 403.658 84.3125 406.145 113.528C408.927 145.544 406.047 187.494 399.104 215.12C394.062 235.183 380.341 265.912 376.68 265.232C375.885 265.085 370.849 260.596 365.37 255.217Z"
          fill="white"/>
    <path d="M136.539 255.217C155.538 236.02 185.489 164.41 186.389 147.443C187.481 125.271 180.976 106.916 151.964 93.5652C135.454 85.9155 127.364 76.4573 118.588 66.197C117.442 64.8569 116.284 63.5031 115.094 62.1378C104.436 50.2247 98.2506 84.3125 95.764 113.528C92.9817 145.544 95.8613 187.494 102.804 215.12C107.847 235.183 121.567 265.912 125.228 265.232C126.024 265.085 131.06 260.596 136.539 255.217Z"
          fill="white"/>
    <path fill-rule="evenodd" clip-rule="evenodd"
          d="M186.389 147.443C185.489 164.41 155.538 236.02 136.539 255.217C131.06 260.596 126.024 265.085 125.228 265.232C121.567 265.912 107.847 235.183 102.804 215.12C95.8613 187.494 92.9817 145.544 95.764 113.528C98.2506 84.3125 104.436 50.2247 115.094 62.1378C116.284 63.5031 117.442 64.8569 118.588 66.197C127.364 76.4573 135.454 85.9155 151.964 93.5652C180.976 106.916 187.481 125.271 186.389 147.443Z"
          fill="white"/>
    <path fill-rule="evenodd" clip-rule="evenodd"
          d="M136.539 255.217C155.538 236.02 185.489 164.41 186.389 147.443C187.481 125.271 180.976 106.916 151.964 93.5652C135.454 85.9155 127.364 76.4573 118.588 66.197C117.442 64.8569 116.284 63.5031 115.094 62.1378C104.436 50.2247 98.2506 84.3125 95.764 113.528C92.9817 145.544 95.8613 187.494 102.804 215.12C107.847 235.183 121.567 265.912 125.228 265.232C126.024 265.085 131.06 260.596 136.539 255.217Z"
          fill="white"/>
    <path fill-rule="evenodd" clip-rule="evenodd"
          d="M1355.75 424.389C1349.13 424.389 1341.35 424.195 1332.4 423.806C1323.45 423.416 1314.11 422.638 1304.38 421.471C1295.04 420.303 1285.7 418.746 1276.36 416.801C1267.02 415.244 1258.46 412.909 1250.67 409.796C1229.27 401.623 1218.57 387.418 1218.57 367.181V94.5682C1218.57 86.3956 1220.71 80.1689 1224.99 75.8881C1229.66 71.218 1235.89 67.5209 1243.67 64.7967C1256.9 60.1267 1273.44 56.8187 1293.29 54.8729C1313.14 52.5379 1333.57 51.3704 1354.58 51.3704C1404.4 51.3704 1442.73 59.7375 1469.58 76.4718C1496.43 93.2061 1509.86 119.086 1509.86 154.111C1509.86 171.624 1504.8 186.801 1494.68 199.644C1484.57 212.097 1470.94 221.243 1453.82 227.08C1473.28 232.529 1489.43 242.453 1502.27 256.852C1515.5 271.251 1522.12 289.348 1522.12 311.141C1522.12 349.669 1507.72 378.273 1478.92 396.953C1450.51 415.244 1409.46 424.389 1355.75 424.389ZM1423.9 135.07C1423.9 117.74 1371.13 116.952 1371.13 135.07C1371.13 157.126 1423.9 150.824 1423.9 135.07ZM1393.18 103.561C1393.18 86.2317 1340.41 85.444 1340.41 103.561C1340.41 125.617 1393.18 119.316 1393.18 103.561ZM1296.29 109.863C1315.2 94.8966 1363.25 124.042 1363.25 153.975C1363.25 183.908 1315.2 212.457 1296.29 197.491C1289.61 191.286 1293.63 182.118 1297.84 172.526C1300.57 166.289 1303.38 159.872 1303.38 153.975C1303.38 148.1 1300.59 141.619 1297.87 135.293C1293.65 125.502 1289.59 116.084 1296.29 109.863ZM1423.9 172.284C1423.9 189.614 1371.13 190.402 1371.13 172.284C1371.13 150.228 1423.9 156.53 1423.9 172.284ZM1393.18 203.793C1393.18 221.122 1340.41 221.91 1340.41 203.793C1340.41 181.737 1393.18 188.038 1393.18 203.793ZM1423.9 295.914C1423.9 278.585 1371.13 277.797 1371.13 295.914C1371.13 317.97 1423.9 311.669 1423.9 295.914ZM1393.18 264.406C1393.18 247.076 1340.41 246.289 1340.41 264.406C1340.41 286.462 1393.18 280.16 1393.18 264.406ZM1296.29 270.708C1315.2 255.741 1363.25 284.886 1363.25 314.819C1363.25 344.752 1315.2 373.302 1296.29 358.335C1289.61 352.13 1293.63 342.962 1297.84 333.37C1300.57 327.133 1303.38 320.717 1303.38 314.819C1303.38 308.945 1300.59 302.463 1297.87 296.137C1293.65 286.347 1289.59 276.928 1296.29 270.708ZM1423.9 333.129C1423.9 350.458 1371.13 351.246 1371.13 333.129C1371.13 311.073 1423.9 317.374 1423.9 333.129ZM1393.18 364.637C1393.18 381.967 1340.41 382.754 1340.41 364.637C1340.41 342.581 1393.18 348.883 1393.18 364.637Z"
          fill="white"/>
    <path d="M421.38 393.335C420.601 395.701 419.238 398.575 417.291 401.956C415.344 405.337 410.086 409.901 401.519 415.649C393.34 421.059 383.41 423.763 371.727 423.763C360.433 423.763 350.502 421.059 341.935 415.649C333.756 409.901 328.304 404.323 325.578 398.913L257.232 223.948H244.677L176.331 398.913C173.604 404.323 168.152 409.901 159.974 415.649C151.406 421.059 141.476 423.763 130.182 423.763C118.499 423.763 108.568 421.059 100.39 415.649C91.8224 409.901 86.5649 405.337 84.6177 401.956C82.6705 398.575 81.3075 395.701 80.5286 393.335C53.8521 313.033 0.499023 132.855 0.499023 54.5621C11.0139 51.1811 20.1657 49.4906 27.9544 49.4906L77.1559 50.1909C66.2545 141.324 69.7741 286.401 119.502 308.586C148.732 317.268 173.869 244.786 206.284 151.318C217.148 119.992 228.829 86.3087 241.756 52.5335H260.152C273.079 86.3062 284.759 119.987 295.622 151.311L295.624 151.316L295.625 151.318C328.04 244.786 353.176 317.268 382.406 308.586C432.135 286.401 435.654 141.324 424.753 50.1909L473.954 49.4906C481.743 49.4906 490.895 51.1811 501.41 54.5621C501.41 132.855 448.057 313.033 421.38 393.335Z"
          fill="white"/>
</svg>
